<svg xmlns="http://www.w3.org/2000/svg" width="128" height="128">
  <defs>
    <pattern id="a" patternUnits="userSpaceOnUse" width="128" height="128">
      <path d="m12.375 3.813-.312.843-8 21.907-.22.593 1 1 .595-.218 21.906-8 .843-.313-.218-.875s-1.41-5.629-5.25-9.469-9.469-5.25-9.469-5.25Zm1.219 2.468c1.136.352 4.836 1.586 7.687 4.438s4.086 6.55 4.438 7.687l-1.532.563a10.5 10.5 0 0 0-.437-1.407c-.61-1.511-1.746-3.496-3.781-5.53-2.035-2.036-4.02-3.141-5.532-3.75-.539-.216-1-.36-1.406-.47Zm-1.219 3.407c.336.09.766.218 1.313.437 1.289.52 3.046 1.484 4.874 3.313.536.535.977 1.05 1.375 1.562A2.004 2.004 0 0 0 18 17a2 2 0 0 0 2 2c.738 0 1.371-.402 1.719-1 .043.102.117.215.156.313.227.562.348 1.007.438 1.343l-10 3.625A1.48 1.48 0 0 0 11 22.5a1.5 1.5 0 0 0-1.469 1.813l-2.906 1.062 3.5-9.594A2 2 0 0 0 11 16a2 2 0 0 0 .5-3.937ZM14 17.5a1.5 1.5 0 1 0 0 3 1.5 1.5 0 0 0 0-3m69.625 74.687.312-.843 8-21.907.22-.593-1-1-.595.218-21.906 8-.843.313.218.875s1.41 5.629 5.25 9.469 9.469 5.25 9.469 5.25Zm-1.219-2.468c-1.136-.352-4.836-1.586-7.687-4.438s-4.086-6.55-4.438-7.687l1.532-.563a10.5 10.5 0 0 0 .437 1.407c.61 1.511 1.746 3.496 3.781 5.53 2.035 2.036 4.02 3.141 5.532 3.75.539.216 1 .36 1.406.47Zm1.219-3.407c-.336-.09-.766-.218-1.313-.437-1.289-.52-3.046-1.484-4.874-3.313A16 16 0 0 1 76.063 81 2.004 2.004 0 0 0 78 79a2 2 0 0 0-2-2c-.738 0-1.371.402-1.719 1-.043-.102-.117-.215-.156-.313a11 11 0 0 1-.438-1.343l10-3.625A1.48 1.48 0 0 0 85 73.5a1.5 1.5 0 0 0 1.469-1.813l2.906-1.062-3.5 9.594A2 2 0 0 0 85 80a2 2 0 0 0-.5 3.937ZM82 78.5a1.5 1.5 0 1 0 0-3 1.5 1.5 0 0 0 0 3" fill="#e3cd88"/>
    </pattern>
  </defs>
  <path fill="url(#a)" d="M0 0h128v128H0z"/>
</svg>
